<svg id="Layer_3_Image" data-name="Layer 3 Image" xmlns="http://www.w3.org/2000/svg" viewBox="0 0 354.76 190.78"><defs><style>.cls-1{fill:#e2e2e2;}.cls-2{fill:#fcfcfc;}.cls-3{fill:#fc7c5f;}.cls-4{fill:#fff;}</style></defs><path class="cls-1" d="M149.4,273q-14.68,0-14.66-15.8v-5.74H117.69v5.74Q117.69,273,103,273h-2.84v2.26h53.25V273Zm38.83-74.05c-3.38-3.71-8.23-6.29-14.59-7.74-1.77-.39-4-.76-6.7-1.08s-5.74-.55-9.12-.76-6.5-.32-9.36-.32H100.32v2.29H103q14.67,0,14.66,15.67v25.2h17.05V191.32h15.47a48.1,48.1,0,0,1,9.46.79,20.7,20.7,0,0,1,6.63,2.61q7.95,5.06,7.93,18c0,7.37-1.92,12.8-5.71,16.32a17.49,17.49,0,0,1-5.13,3.19h17.15a28.38,28.38,0,0,0,3.18-1.76,21.26,21.26,0,0,0,7.14-7.51,21,21,0,0,0,2.42-10.11A19.94,19.94,0,0,0,188.23,198.93Z" transform="translate(-77.85 -84.46)"/><path class="cls-1" d="M284.07,251.44a33.3,33.3,0,0,1-7.17,13.19,21.36,21.36,0,0,1-6.06,4.79,28.31,28.31,0,0,1-8.08,2.64,69,69,0,0,1-11.26.79H235.9V251.44H218.85v5.74c0,5.29-1.2,9.24-3.59,11.82s-6.09,3.85-11.07,3.85h-2.95v2.39h57.35a57.77,57.77,0,0,0,19.12-3.05A45.94,45.94,0,0,0,293,263.53a38.76,38.76,0,0,0,9.34-12.09Zm19.12-34.13a44.83,44.83,0,0,0-9.26-14.08,40.17,40.17,0,0,0-16.36-10.69A67,67,0,0,0,254.78,189H201.24v2.29h2.95q7.5,0,11.09,3.82c2.39,2.56,3.57,6.51,3.57,11.85v25.2H235.9V191.32h14.54a68.8,68.8,0,0,1,11.19.79,29.47,29.47,0,0,1,8.2,2.64,24,24,0,0,1,6.38,4.79,32.08,32.08,0,0,1,5.64,8.45,46.17,46.17,0,0,1,3.45,11.14,73.38,73.38,0,0,1,1.19,13.06h19.95A41.22,41.22,0,0,0,303.19,217.31Z" transform="translate(-77.85 -84.46)"/><path class="cls-1" d="M346.21,272.37a10.31,10.31,0,0,1-2.78-1.31,10.59,10.59,0,0,1-3.85-4.19,12,12,0,0,1-1.48-5.64,17.52,17.52,0,0,1,1.29-6.58l1.3-3.21h-2.34q-5.4,12.31-11,17a16.76,16.76,0,0,1-10.4,4.45v2.39h32.87v-2.39A16.79,16.79,0,0,1,346.21,272.37ZM367,187.32h-2.12l-18.55,44.87h2.26l10.16-24.7,10.42,24.7h17.15Zm46,85.53a14.72,14.72,0,0,1-5.72-1,11.51,11.51,0,0,1-4.36-3.29,24.44,24.44,0,0,1-3.48-5.79l-4.85-11.3H377.53c.27.53.49,1.05.71,1.61s.39,1,.52,1.23c1.9,4.32,3.1,7.3,3.67,8.93a13.26,13.26,0,0,1,.84,4.21,4.56,4.56,0,0,1-2.12,4.11c-1.41.87-3.62,1.32-6.65,1.32h-6.14v2.39H415.2v-2.39Z" transform="translate(-77.85 -84.46)"/><path class="cls-2" d="M78,245.23V237.6h7q3.09,0,3.09,1.86v1.08q0,1.86-3.09,1.86H79.79v2.83Zm1.82-3.92h5a2.08,2.08,0,0,0,1-.19.67.67,0,0,0,.32-.63v-1a.67.67,0,0,0-.32-.63,2.2,2.2,0,0,0-1-.19h-5Z" transform="translate(-77.85 -84.46)"/><path class="cls-2" d="M79.91,245.35H77.85v-7.87h7.08c2.13,0,3.21.66,3.21,2v1.08c0,1.32-1.08,2-3.21,2h-5Zm-1.81-.24h1.57v-2.83h5.26c2,0,3-.57,3-1.74v-1.08c0-1.17-1-1.74-3-1.74H78.1Zm6.74-3.68H79.67v-2.86h5.17a2.14,2.14,0,0,1,1.11.21.78.78,0,0,1,.37.73v1a.78.78,0,0,1-.37.73A2.25,2.25,0,0,1,84.84,241.43Zm-4.93-.25h4.93a2,2,0,0,0,1-.17.55.55,0,0,0,.26-.52v-1a.55.55,0,0,0-.26-.52,2,2,0,0,0-1-.18H79.91Z" transform="translate(-77.85 -84.46)"/><path class="cls-2" d="M95.59,237.6l4.9,7.63H98.67l-1.12-1.76H91.81l-1.13,1.76H88.87l4.9-7.63Zm-3.09,4.78h4.35L94.68,239Z" transform="translate(-77.85 -84.46)"/><path class="cls-2" d="M100.72,245.35H98.61l0,0-1.09-1.7h-5.6l-1.13,1.75H88.64l.12-.19,4.94-7.68h2l0,.05Zm-2-.24h1.52l-4.74-7.39H93.84l-4.75,7.39h1.53l1.12-1.76h5.87l0,.06Zm-1.67-2.6h-4.8l2.41-3.71.11.15Zm-4.34-.25h3.89l-1.94-3Z" transform="translate(-77.85 -84.46)"/><path class="cls-2" d="M100.62,237.6h10.17v1.09h-4.18v6.54h-1.82v-6.54h-4.17Z" transform="translate(-77.85 -84.46)"/><path class="cls-2" d="M106.73,245.35h-2.06v-6.54h-4.18v-1.33h10.42v1.33h-4.18Zm-1.81-.24h1.57v-6.54h4.18v-.85h-9.93v.85h4.18Z" transform="translate(-77.85 -84.46)"/><path class="cls-2" d="M113.46,237.6h9.27v1.09h-7.45v2.18h6.36V242h-6.36v2.18h7.45v1.09h-9.27Z" transform="translate(-77.85 -84.46)"/><path class="cls-2" d="M122.85,245.35h-9.51v-7.87h9.51v1.33H115.4v1.94h6.36v1.33H115.4V244h7.45Zm-9.27-.24h9v-.85h-7.45v-2.42h6.36V241h-6.36v-2.42h7.45v-.85h-9Z" transform="translate(-77.85 -84.46)"/><path class="cls-2" d="M127.76,237.6v6.54h6.53v1.09h-8.35V237.6Z" transform="translate(-77.85 -84.46)"/><path class="cls-2" d="M134.41,245.35h-8.59v-7.87h2.06V244h6.53Zm-8.35-.24h8.11v-.85h-6.54v-6.54h-1.57Z" transform="translate(-77.85 -84.46)"/><path class="cls-2" d="M142.9,245.23V237.6h6.46a7.94,7.94,0,0,1,1.84.19,4.77,4.77,0,0,1,1.41.54,2.67,2.67,0,0,1,.89.84,2,2,0,0,1,.32,1.1v2.29a2,2,0,0,1-.32,1.1,2.67,2.67,0,0,1-.89.84,4.51,4.51,0,0,1-1.41.54,7.94,7.94,0,0,1-1.84.19Zm6.46-1.09a3.89,3.89,0,0,0,2-.41,1.29,1.29,0,0,0,.68-1.17v-2.29a1.21,1.21,0,0,0-.18-.66,1.47,1.47,0,0,0-.52-.5,2.61,2.61,0,0,0-.83-.31,5.21,5.21,0,0,0-1.11-.11h-4.64v5.45Z" transform="translate(-77.85 -84.46)"/><path class="cls-2" d="M149.36,245.35h-6.58v-7.87h6.58a8.21,8.21,0,0,1,1.87.19,5,5,0,0,1,1.44.55,2.72,2.72,0,0,1,.93.88,2.19,2.19,0,0,1,.34,1.17v2.29a2.19,2.19,0,0,1-.34,1.17,2.82,2.82,0,0,1-.93.88,4.86,4.86,0,0,1-1.44.55A8.21,8.21,0,0,1,149.36,245.35Zm-6.34-.24h6.34a8.41,8.41,0,0,0,1.82-.19,4.71,4.71,0,0,0,1.36-.52,2.56,2.56,0,0,0,.86-.8,2,2,0,0,0,.29-1v-2.29a1.9,1.9,0,0,0-.29-1,2.78,2.78,0,0,0-.86-.8,4.71,4.71,0,0,0-1.36-.52,8.34,8.34,0,0,0-1.82-.19H143Zm6.34-.85H144.6v-5.69h4.76a4.9,4.9,0,0,1,1.14.11,2.8,2.8,0,0,1,.86.32,1.85,1.85,0,0,1,.57.54,1.5,1.5,0,0,1,.19.73v2.29a1.4,1.4,0,0,1-.74,1.27A3.91,3.91,0,0,1,149.36,244.26Zm-4.52-.24h4.52a3.72,3.72,0,0,0,1.89-.4,1.15,1.15,0,0,0,.62-1.06v-2.29a1.08,1.08,0,0,0-.16-.6,1.38,1.38,0,0,0-.47-.46,2.67,2.67,0,0,0-.8-.29,4.92,4.92,0,0,0-1.08-.11h-4.52Z" transform="translate(-77.85 -84.46)"/><path class="cls-2" d="M157.21,237.6h9.27v1.09H159v2.18h6.36V242H159v2.18h7.45v1.09h-9.27Z" transform="translate(-77.85 -84.46)"/><path class="cls-2" d="M166.6,245.35h-9.51v-7.87h9.51v1.33h-7.45v1.94h6.36v1.33h-6.36V244h7.45Zm-9.26-.24h9v-.85h-7.45v-2.42h6.36V241h-6.36v-2.42h7.45v-.85h-9Z" transform="translate(-77.85 -84.46)"/><path class="cls-2" d="M171.51,242a3.13,3.13,0,0,1-.7-.08,2.07,2.07,0,0,1-.58-.24,1.2,1.2,0,0,1-.39-.34.72.72,0,0,1-.15-.43v-2.18a.68.68,0,0,1,.15-.42,1.11,1.11,0,0,1,.39-.35,2.06,2.06,0,0,1,.58-.23,2.63,2.63,0,0,1,.7-.09h6.17a2.71,2.71,0,0,1,.71.09,2.34,2.34,0,0,1,.58.23,1.11,1.11,0,0,1,.39.35.73.73,0,0,1,.14.42v1h-1.82v-1h-6.17v2.18h6.17a2.71,2.71,0,0,1,.71.09,2.34,2.34,0,0,1,.58.23,1.22,1.22,0,0,1,.39.35.73.73,0,0,1,.14.42v2.18a.73.73,0,0,1-.14.42,1.11,1.11,0,0,1-.39.35,2.35,2.35,0,0,1-.58.24,3.22,3.22,0,0,1-.71.08h-6.35a3.19,3.19,0,0,1-.7-.08,2.2,2.2,0,0,1-.58-.24,1.11,1.11,0,0,1-.39-.35.66.66,0,0,1-.14-.42v-1h1.81v1h6.35V242Z" transform="translate(-77.85 -84.46)"/><path class="cls-2" d="M177.68,245.35h-6.35a3.47,3.47,0,0,1-.73-.08A3,3,0,0,1,170,245a1.32,1.32,0,0,1-.42-.39.83.83,0,0,1-.17-.49V243h2.07v1h6.1v-1.94h-6.05a2.57,2.57,0,0,1-1.35-.33,1.6,1.6,0,0,1-.43-.38.93.93,0,0,1-.16-.5v-2.18a.89.89,0,0,1,.16-.49,1.32,1.32,0,0,1,.43-.38,2.17,2.17,0,0,1,.62-.25,2.86,2.86,0,0,1,.73-.09h6.17a2.89,2.89,0,0,1,.74.09,2,2,0,0,1,.61.25,1.23,1.23,0,0,1,.43.38.82.82,0,0,1,.16.49v1.11h-2.06v-1h-5.92v1.94h6a3,3,0,0,1,.74.09,2,2,0,0,1,.61.25,1.23,1.23,0,0,1,.43.38.82.82,0,0,1,.16.49v2.18a.82.82,0,0,1-.16.49,1.36,1.36,0,0,1-.43.39,2.67,2.67,0,0,1-.61.25A3.57,3.57,0,0,1,177.68,245.35Zm-8-2.07v.86a.59.59,0,0,0,.12.35,1.07,1.07,0,0,0,.35.31,1.86,1.86,0,0,0,.55.23,2.93,2.93,0,0,0,.67.08h6.35a3,3,0,0,0,.68-.08,1.91,1.91,0,0,0,.54-.23,1.11,1.11,0,0,0,.36-.31.59.59,0,0,0,.12-.35V242a.62.62,0,0,0-.12-.35,1.18,1.18,0,0,0-.35-.31,1.81,1.81,0,0,0-.55-.22,2.54,2.54,0,0,0-.68-.09h-6.29v-2.42h6.42v1h1.57v-.86a.59.59,0,0,0-.12-.35,1.06,1.06,0,0,0-.35-.31,2.11,2.11,0,0,0-.55-.22,2.54,2.54,0,0,0-.68-.09h-6.17a2.41,2.41,0,0,0-.67.09,1.62,1.62,0,0,0-.55.22,1,1,0,0,0-.35.31.53.53,0,0,0-.12.35v2.18a.59.59,0,0,0,.12.35,1.09,1.09,0,0,0,.35.32,2.52,2.52,0,0,0,.55.22,2.86,2.86,0,0,0,.67.08h6.3v2.42h-6.6v-1Z" transform="translate(-77.85 -84.46)"/><path class="cls-2" d="M185.08,237.6v7.63h-1.82V237.6Z" transform="translate(-77.85 -84.46)"/><path class="cls-2" d="M185.2,245.35h-2.06v-7.87h2.06Zm-1.82-.24H185v-7.39h-1.58Z" transform="translate(-77.85 -84.46)"/><path class="cls-2" d="M188.83,238.69a.68.68,0,0,1,.15-.42,1.11,1.11,0,0,1,.39-.35,2.06,2.06,0,0,1,.58-.23,2.63,2.63,0,0,1,.7-.09h6.9a2.71,2.71,0,0,1,.71.09,2.34,2.34,0,0,1,.58.23,1.32,1.32,0,0,1,.39.35.73.73,0,0,1,.14.42v1h-1.82v-1h-6.9v5.45h6.9v-1.85H194.1V241.2h5.27v2.94a.73.73,0,0,1-.14.42,1.32,1.32,0,0,1-.39.35,2.35,2.35,0,0,1-.58.24,3.22,3.22,0,0,1-.71.08h-6.9a3.13,3.13,0,0,1-.7-.08,2.07,2.07,0,0,1-.58-.24,1.11,1.11,0,0,1-.39-.35.68.68,0,0,1-.15-.42Z" transform="translate(-77.85 -84.46)"/><path class="cls-2" d="M197.55,245.35h-6.9a3.55,3.55,0,0,1-.73-.08,3,3,0,0,1-.62-.25,1.48,1.48,0,0,1-.43-.39.89.89,0,0,1-.16-.49v-5.45a.89.89,0,0,1,.16-.49,1.32,1.32,0,0,1,.43-.38,2.17,2.17,0,0,1,.62-.25,2.86,2.86,0,0,1,.73-.09h6.9a2.94,2.94,0,0,1,.74.09,2.23,2.23,0,0,1,.61.25,1.32,1.32,0,0,1,.43.38.8.8,0,0,1,.16.49v1.11h-2.06v-1h-6.65V244h6.65v-1.61H194v-1.34h5.51v3.07a.75.75,0,0,1-.17.49,1.32,1.32,0,0,1-.42.39,2.67,2.67,0,0,1-.61.25A3.57,3.57,0,0,1,197.55,245.35Zm-6.9-7.63a2.41,2.41,0,0,0-.67.09,1.71,1.71,0,0,0-.55.22,1,1,0,0,0-.35.31.59.59,0,0,0-.12.35v5.45a.59.59,0,0,0,.12.35,1.07,1.07,0,0,0,.35.31,1.86,1.86,0,0,0,.55.23,2.93,2.93,0,0,0,.67.08h6.9a3.08,3.08,0,0,0,.68-.08,1.91,1.91,0,0,0,.54-.23,1.11,1.11,0,0,0,.36-.31.59.59,0,0,0,.12-.35v-2.82h-5v.84h3.45v2.1h-7.14v-5.69h7.14v1h1.58v-.86a.57.57,0,0,0-.12-.35,1.1,1.1,0,0,0-.36-.31,1.91,1.91,0,0,0-.54-.22,2.48,2.48,0,0,0-.68-.09Z" transform="translate(-77.85 -84.46)"/><path class="cls-2" d="M204.94,245.23h-1.82V237.6h1.82l7.64,5.92V237.6h1.82v7.63h-1.82l-7.64-5.92Z" transform="translate(-77.85 -84.46)"/><path class="cls-2" d="M214.52,245.35h-2l0,0-7.45-5.77v5.79H203v-7.87h2l0,0,7.44,5.77v-5.79h2.06Zm-1.89-.24h1.65v-7.39h-1.57v6.05l-.2-.16-7.61-5.89h-1.66v7.39h1.58v-6.05l.2.16Z" transform="translate(-77.85 -84.46)"/><path class="cls-2" d="M218.16,237.6h9.26v1.09H220v2.18h6.36V242H220v2.18h7.45v1.09h-9.26Z" transform="translate(-77.85 -84.46)"/><path class="cls-2" d="M227.54,245.35H218v-7.87h9.51v1.33H220.1v1.94h6.35v1.33H220.1V244h7.44Zm-9.26-.24h9v-.85h-7.45v-2.42h6.36V241h-6.36v-2.42h7.45v-.85h-9Z" transform="translate(-77.85 -84.46)"/><path class="cls-2" d="M240.68,240.32c0,1.07-.76,1.68-2.27,1.82l2.39,3.09h-2l-2.36-3h-4v3h-1.82V237.6h7q3.09,0,3.09,1.86Zm-8.23.77h5.05a2.08,2.08,0,0,0,1-.19.67.67,0,0,0,.32-.63v-.76a.67.67,0,0,0-.32-.63,2.2,2.2,0,0,0-1-.19h-5.05Z" transform="translate(-77.85 -84.46)"/><path class="cls-2" d="M241.05,245.35h-2.32l0,0-2.33-3h-3.8v3h-2.06v-7.87h7.08c2.13,0,3.21.66,3.21,2v.86c0,1.08-.72,1.73-2.16,1.92Zm-2.2-.24h1.7L238.18,242l.22,0c1.45-.14,2.16-.7,2.16-1.7v-.86c0-1.17-1-1.74-3-1.74h-6.83v7.39h1.57v-3.05h4.16l0,.05Zm-1.35-3.9h-5.17v-2.64h5.17a2.07,2.07,0,0,1,1.1.21.77.77,0,0,1,.38.73v.76a.76.76,0,0,1-.38.73A2.07,2.07,0,0,1,237.5,241.21Zm-4.93-.24h4.93a2,2,0,0,0,1-.18.55.55,0,0,0,.26-.52v-.76a.55.55,0,0,0-.26-.52,2,2,0,0,0-1-.18h-4.93Z" transform="translate(-77.85 -84.46)"/><path class="cls-2" d="M246,242a3.13,3.13,0,0,1-.7-.08,2.07,2.07,0,0,1-.58-.24,1.2,1.2,0,0,1-.39-.34.72.72,0,0,1-.15-.43v-2.18a.68.68,0,0,1,.15-.42,1.11,1.11,0,0,1,.39-.35,2.06,2.06,0,0,1,.58-.23,2.63,2.63,0,0,1,.7-.09h6.17a2.71,2.71,0,0,1,.71.09,2.34,2.34,0,0,1,.58.23,1.11,1.11,0,0,1,.39.35.73.73,0,0,1,.14.42v1h-1.82v-1H246v2.18h6.17a2.71,2.71,0,0,1,.71.09,2.34,2.34,0,0,1,.58.23,1.22,1.22,0,0,1,.39.35.73.73,0,0,1,.14.42v2.18a.73.73,0,0,1-.14.42,1.11,1.11,0,0,1-.39.35,2.35,2.35,0,0,1-.58.24,3.22,3.22,0,0,1-.71.08h-6.35a3.19,3.19,0,0,1-.7-.08,2.2,2.2,0,0,1-.58-.24,1.11,1.11,0,0,1-.39-.35.66.66,0,0,1-.14-.42v-1h1.81v1h6.35V242Z" transform="translate(-77.85 -84.46)"/><path class="cls-2" d="M252.19,245.35h-6.35a3.47,3.47,0,0,1-.73-.08,3,3,0,0,1-.62-.25,1.32,1.32,0,0,1-.42-.39.83.83,0,0,1-.17-.49V243H246v1h6.1v-1.94h-6a2.57,2.57,0,0,1-1.35-.33,1.6,1.6,0,0,1-.43-.38.93.93,0,0,1-.16-.5v-2.18a.89.89,0,0,1,.16-.49,1.32,1.32,0,0,1,.43-.38,2.17,2.17,0,0,1,.62-.25,2.86,2.86,0,0,1,.73-.09h6.17a2.89,2.89,0,0,1,.74.09,2,2,0,0,1,.61.25,1.23,1.23,0,0,1,.43.38.82.82,0,0,1,.16.49v1.11h-2.06v-1h-5.92v1.94h6a3,3,0,0,1,.74.09,2,2,0,0,1,.61.25,1.23,1.23,0,0,1,.43.38.82.82,0,0,1,.16.49v2.18a.82.82,0,0,1-.16.49,1.36,1.36,0,0,1-.43.39,2.67,2.67,0,0,1-.61.25A3.57,3.57,0,0,1,252.19,245.35Zm-8-2.07v.86a.59.59,0,0,0,.12.35,1.18,1.18,0,0,0,.35.31,1.86,1.86,0,0,0,.55.23,2.93,2.93,0,0,0,.67.08h6.35a3,3,0,0,0,.68-.08,1.91,1.91,0,0,0,.54-.23,1.11,1.11,0,0,0,.36-.31.59.59,0,0,0,.12-.35V242a.62.62,0,0,0-.12-.35,1.18,1.18,0,0,0-.35-.31,1.81,1.81,0,0,0-.55-.22,2.54,2.54,0,0,0-.68-.09H245.9v-2.42h6.42v1h1.57v-.86a.59.59,0,0,0-.12-.35,1.06,1.06,0,0,0-.35-.31,2.11,2.11,0,0,0-.55-.22,2.48,2.48,0,0,0-.68-.09H246a2.41,2.41,0,0,0-.67.09,1.62,1.62,0,0,0-.55.22,1,1,0,0,0-.35.31.59.59,0,0,0-.12.35v2.18a.59.59,0,0,0,.12.35,1.09,1.09,0,0,0,.35.32,2.52,2.52,0,0,0,.55.22,2.86,2.86,0,0,0,.67.08h6.3v2.42h-6.6v-1Z" transform="translate(-77.85 -84.46)"/><path class="cls-2" d="M269.34,237.6l4.9,7.63h-1.81l-1.13-1.76h-5.74l-1.13,1.76h-1.81l4.9-7.63Zm-3.09,4.78h4.35L268.43,239Z" transform="translate(-77.85 -84.46)"/><path class="cls-2" d="M274.47,245.35h-2.11l0,0-1.09-1.7h-5.6l-1.13,1.75h-2.11l.12-.19,4.94-7.68h2l0,.05Zm-2-.24H274l-4.75-7.39h-1.68l-4.75,7.39h1.53l1.12-1.76h5.88l0,.06Zm-1.66-2.6H266l2.4-3.71.11.15Zm-4.35-.25h3.89l-1.94-3Z" transform="translate(-77.85 -84.46)"/><path class="cls-2" d="M278.73,245.23h-1.81V237.6h1.81l7.65,5.92V237.6h1.82v7.63h-1.82l-7.65-5.92Z" transform="translate(-77.85 -84.46)"/><path class="cls-2" d="M288.32,245.35h-2l0,0-7.44-5.77v5.79h-2.07v-7.87h2l0,0,7.44,5.77v-5.79h2.07Zm-1.9-.24h1.65v-7.39H286.5v6.05l-.2-.16-7.61-5.89H277v7.39h1.57v-6.05l.2.16Z" transform="translate(-77.85 -84.46)"/><path class="cls-2" d="M292,245.23V237.6h6.46a7.94,7.94,0,0,1,1.84.19,4.6,4.6,0,0,1,1.4.54,2.61,2.61,0,0,1,.9.84,2,2,0,0,1,.32,1.1v2.29a2,2,0,0,1-.32,1.1,2.61,2.61,0,0,1-.9.84,4.35,4.35,0,0,1-1.4.54,7.94,7.94,0,0,1-1.84.19Zm6.46-1.09a3.89,3.89,0,0,0,2-.41,1.29,1.29,0,0,0,.68-1.17v-2.29a1.21,1.21,0,0,0-.18-.66,1.47,1.47,0,0,0-.52-.5,2.61,2.61,0,0,0-.83-.31,5.21,5.21,0,0,0-1.11-.11h-4.64v5.45Z" transform="translate(-77.85 -84.46)"/><path class="cls-2" d="M298.41,245.35h-6.58v-7.87h6.58a8.21,8.21,0,0,1,1.87.19,5,5,0,0,1,1.44.55,2.72,2.72,0,0,1,.93.88,2.19,2.19,0,0,1,.34,1.17v2.29a2.19,2.19,0,0,1-.34,1.17,2.82,2.82,0,0,1-.93.88,4.86,4.86,0,0,1-1.44.55A8.21,8.21,0,0,1,298.41,245.35Zm-6.34-.24h6.34a8.41,8.41,0,0,0,1.82-.19,4.71,4.71,0,0,0,1.36-.52,2.56,2.56,0,0,0,.86-.8,2,2,0,0,0,.29-1v-2.29a1.9,1.9,0,0,0-.29-1,2.78,2.78,0,0,0-.86-.8,4.71,4.71,0,0,0-1.36-.52,8.34,8.34,0,0,0-1.82-.19h-6.34Zm6.34-.85h-4.77v-5.69h4.77a5,5,0,0,1,1.14.11,2.8,2.8,0,0,1,.86.32,1.85,1.85,0,0,1,.57.54,1.5,1.5,0,0,1,.19.73v2.29a1.4,1.4,0,0,1-.74,1.27A3.91,3.91,0,0,1,298.41,244.26Zm-4.52-.24h4.52a3.72,3.72,0,0,0,1.89-.4,1.15,1.15,0,0,0,.62-1.06v-2.29a1.08,1.08,0,0,0-.16-.6,1.38,1.38,0,0,0-.47-.46,2.67,2.67,0,0,0-.8-.29,4.92,4.92,0,0,0-1.08-.11h-4.52Z" transform="translate(-77.85 -84.46)"/><path class="cls-2" d="M317.83,237.6l4.9,7.63h-1.82l-1.12-1.76h-5.74l-1.13,1.76h-1.81l4.9-7.63Zm-3.09,4.78h4.35L316.92,239Z" transform="translate(-77.85 -84.46)"/><path class="cls-2" d="M323,245.35h-2.11l0,0-1.09-1.7h-5.6L313,245.35h-2.11l.12-.19,4.94-7.68h1.95l0,.05Zm-2-.24h1.52l-4.74-7.39h-1.68l-4.75,7.39h1.53l1.12-1.76h5.87l0,.06Zm-1.67-2.6h-4.79l2.4-3.71.11.15Zm-4.34-.25h3.89l-1.94-3Z" transform="translate(-77.85 -84.46)"/><path class="cls-2" d="M327.22,242a3.13,3.13,0,0,1-.7-.08,2.07,2.07,0,0,1-.58-.24,1.2,1.2,0,0,1-.39-.34.72.72,0,0,1-.15-.43v-2.18a.68.68,0,0,1,.15-.42,1.11,1.11,0,0,1,.39-.35,2.06,2.06,0,0,1,.58-.23,2.63,2.63,0,0,1,.7-.09h6.17a2.71,2.71,0,0,1,.71.09,2.34,2.34,0,0,1,.58.23,1.21,1.21,0,0,1,.39.35.73.73,0,0,1,.14.42v1h-1.82v-1h-6.17v2.18h6.17a2.71,2.71,0,0,1,.71.09,2.34,2.34,0,0,1,.58.23,1.34,1.34,0,0,1,.39.35.73.73,0,0,1,.14.42v2.18a.73.73,0,0,1-.14.42,1.21,1.21,0,0,1-.39.35,2.35,2.35,0,0,1-.58.24,3.22,3.22,0,0,1-.71.08H327a3.19,3.19,0,0,1-.7-.08,2.2,2.2,0,0,1-.58-.24,1.11,1.11,0,0,1-.39-.35.66.66,0,0,1-.14-.42v-1H327v1h6.35V242Z" transform="translate(-77.85 -84.46)"/><path class="cls-2" d="M333.39,245.35H327a3.47,3.47,0,0,1-.73-.08,2.76,2.76,0,0,1-.62-.25,1.32,1.32,0,0,1-.42-.39.83.83,0,0,1-.17-.49V243h2.07v1h6.1v-1.94h-6a2.57,2.57,0,0,1-1.35-.33,1.6,1.6,0,0,1-.43-.38.93.93,0,0,1-.16-.5v-2.18a.89.89,0,0,1,.16-.49,1.32,1.32,0,0,1,.43-.38,2.17,2.17,0,0,1,.62-.25,2.86,2.86,0,0,1,.73-.09h6.17a2.89,2.89,0,0,1,.74.09,2,2,0,0,1,.61.25,1.23,1.23,0,0,1,.43.38.82.82,0,0,1,.16.49v1.11h-2.06v-1h-5.93v1.94h6.05a3,3,0,0,1,.74.09,2,2,0,0,1,.61.25,1.23,1.23,0,0,1,.43.38.82.82,0,0,1,.16.49v2.18a.82.82,0,0,1-.16.49,1.36,1.36,0,0,1-.43.39,2.67,2.67,0,0,1-.61.25A3.57,3.57,0,0,1,333.39,245.35Zm-8-2.07v.86a.59.59,0,0,0,.12.35,1.07,1.07,0,0,0,.35.31,1.86,1.86,0,0,0,.55.23,2.93,2.93,0,0,0,.67.08h6.35a3,3,0,0,0,.68-.08,1.91,1.91,0,0,0,.54-.23,1.11,1.11,0,0,0,.36-.31.59.59,0,0,0,.12-.35V242a.62.62,0,0,0-.12-.35,1.18,1.18,0,0,0-.35-.31,1.81,1.81,0,0,0-.55-.22,2.54,2.54,0,0,0-.68-.09H327.1v-2.42h6.42v1h1.57v-.86a.59.59,0,0,0-.12-.35,1.06,1.06,0,0,0-.35-.31,2.11,2.11,0,0,0-.55-.22,2.54,2.54,0,0,0-.68-.09h-6.17a2.41,2.41,0,0,0-.67.09,1.62,1.62,0,0,0-.55.22,1,1,0,0,0-.35.31.53.53,0,0,0-.12.35v2.18a.59.59,0,0,0,.12.35,1.09,1.09,0,0,0,.35.32,2.52,2.52,0,0,0,.55.22,2.86,2.86,0,0,0,.67.08h6.3v2.42h-6.6v-1Z" transform="translate(-77.85 -84.46)"/><path class="cls-2" d="M340.79,242a3.13,3.13,0,0,1-.7-.08,2.07,2.07,0,0,1-.58-.24,1.2,1.2,0,0,1-.39-.34.72.72,0,0,1-.15-.43v-2.18a.68.68,0,0,1,.15-.42,1.11,1.11,0,0,1,.39-.35,2.06,2.06,0,0,1,.58-.23,2.63,2.63,0,0,1,.7-.09H347a2.71,2.71,0,0,1,.71.09,2.34,2.34,0,0,1,.58.23,1.11,1.11,0,0,1,.39.35.73.73,0,0,1,.14.42v1H347v-1h-6.17v2.18H347a2.71,2.71,0,0,1,.71.09,2.34,2.34,0,0,1,.58.23,1.22,1.22,0,0,1,.39.35.73.73,0,0,1,.14.42v2.18a.73.73,0,0,1-.14.42,1.11,1.11,0,0,1-.39.35,2.35,2.35,0,0,1-.58.24,3.22,3.22,0,0,1-.71.08h-6.35a3.19,3.19,0,0,1-.7-.08,2.2,2.2,0,0,1-.58-.24,1.11,1.11,0,0,1-.39-.35.66.66,0,0,1-.14-.42v-1h1.81v1H347V242Z" transform="translate(-77.85 -84.46)"/><path class="cls-2" d="M347,245.35h-6.35a3.47,3.47,0,0,1-.73-.08,3,3,0,0,1-.62-.25,1.32,1.32,0,0,1-.42-.39.83.83,0,0,1-.17-.49V243h2.07v1h6.1v-1.94h-6a2.57,2.57,0,0,1-1.35-.33,1.6,1.6,0,0,1-.43-.38.93.93,0,0,1-.16-.5v-2.18a.89.89,0,0,1,.16-.49,1.32,1.32,0,0,1,.43-.38,2.17,2.17,0,0,1,.62-.25,2.86,2.86,0,0,1,.73-.09H347a2.89,2.89,0,0,1,.74.09,2,2,0,0,1,.61.25,1.23,1.23,0,0,1,.43.38.82.82,0,0,1,.16.49v1.11h-2.06v-1h-5.92v1.94h6a3,3,0,0,1,.74.09,2,2,0,0,1,.61.25,1.23,1.23,0,0,1,.43.38.82.82,0,0,1,.16.49v2.18a.82.82,0,0,1-.16.49,1.36,1.36,0,0,1-.43.39,2.67,2.67,0,0,1-.61.25A3.57,3.57,0,0,1,347,245.35Zm-8-2.07v.86a.59.59,0,0,0,.12.35,1.18,1.18,0,0,0,.35.31,1.86,1.86,0,0,0,.55.23,2.93,2.93,0,0,0,.67.08H347a3,3,0,0,0,.68-.08,1.91,1.91,0,0,0,.54-.23,1.11,1.11,0,0,0,.36-.31.59.59,0,0,0,.12-.35V242a.62.62,0,0,0-.12-.35,1.18,1.18,0,0,0-.35-.31,1.81,1.81,0,0,0-.55-.22A2.54,2.54,0,0,0,347,241h-6.29v-2.42h6.42v1h1.57v-.86a.59.59,0,0,0-.12-.35,1.06,1.06,0,0,0-.35-.31,2.11,2.11,0,0,0-.55-.22,2.48,2.48,0,0,0-.68-.09h-6.17a2.41,2.41,0,0,0-.67.09,1.62,1.62,0,0,0-.55.22,1,1,0,0,0-.35.31.53.53,0,0,0-.12.35v2.18a.59.59,0,0,0,.12.35,1.09,1.09,0,0,0,.35.32,2.52,2.52,0,0,0,.55.22,2.86,2.86,0,0,0,.67.08h6.3v2.42h-6.6v-1Z" transform="translate(-77.85 -84.46)"/><path class="cls-2" d="M363.44,244.14a.73.73,0,0,1-.14.42,1.32,1.32,0,0,1-.39.35,2.35,2.35,0,0,1-.58.24,3.22,3.22,0,0,1-.71.08h-7.26a3.13,3.13,0,0,1-.7-.08,2.27,2.27,0,0,1-.59-.24,1.32,1.32,0,0,1-.39-.35.73.73,0,0,1-.14-.42v-5.45a.73.73,0,0,1,.14-.42,1.32,1.32,0,0,1,.39-.35,2.27,2.27,0,0,1,.59-.23,2.63,2.63,0,0,1,.7-.09h7.26a2.71,2.71,0,0,1,.71.09,2.34,2.34,0,0,1,.58.23,1.32,1.32,0,0,1,.39.35.73.73,0,0,1,.14.42Zm-9.08-5.45v5.45h7.26v-5.45Z" transform="translate(-77.85 -84.46)"/><path class="cls-2" d="M361.62,245.35h-7.26a3.4,3.4,0,0,1-.73-.08A2.76,2.76,0,0,1,353,245a1.48,1.48,0,0,1-.43-.39.82.82,0,0,1-.16-.49v-5.45a.82.82,0,0,1,.16-.49,1.32,1.32,0,0,1,.43-.38,2.23,2.23,0,0,1,.61-.25,3,3,0,0,1,.74-.09h7.26a2.94,2.94,0,0,1,.74.09,2.23,2.23,0,0,1,.61.25,1.32,1.32,0,0,1,.43.38.8.8,0,0,1,.16.49v5.45a.8.8,0,0,1-.16.49,1.48,1.48,0,0,1-.43.39,2.67,2.67,0,0,1-.61.25A3.57,3.57,0,0,1,361.62,245.35Zm-7.26-7.63a2.41,2.41,0,0,0-.67.09,1.62,1.62,0,0,0-.55.22,1.1,1.1,0,0,0-.36.31.59.59,0,0,0-.12.35v5.45a.59.59,0,0,0,.12.35,1.11,1.11,0,0,0,.36.31,1.86,1.86,0,0,0,.55.23,2.86,2.86,0,0,0,.67.08h7.26a3,3,0,0,0,.68-.08,1.91,1.91,0,0,0,.54-.23,1.11,1.11,0,0,0,.36-.31.59.59,0,0,0,.12-.35v-5.45a.57.57,0,0,0-.12-.35,1.1,1.1,0,0,0-.36-.31,1.91,1.91,0,0,0-.54-.22,2.48,2.48,0,0,0-.68-.09Zm7.39,6.54h-7.51v-5.69h7.51Zm-7.27-.24h7v-5.21h-7Z" transform="translate(-77.85 -84.46)"/><path class="cls-2" d="M367.2,238.69a.66.66,0,0,1,.14-.42,1.11,1.11,0,0,1,.39-.35,2.19,2.19,0,0,1,.58-.23,2.63,2.63,0,0,1,.7-.09h6.9a2.71,2.71,0,0,1,.71.09,2.34,2.34,0,0,1,.58.23,1.32,1.32,0,0,1,.39.35.73.73,0,0,1,.14.42v1h-1.82v-1H369v5.45h6.9v-1h1.82v1a.73.73,0,0,1-.14.42,1.32,1.32,0,0,1-.39.35,2.35,2.35,0,0,1-.58.24,3.22,3.22,0,0,1-.71.08H369a3.13,3.13,0,0,1-.7-.08,2.2,2.2,0,0,1-.58-.24,1.11,1.11,0,0,1-.39-.35.66.66,0,0,1-.14-.42Z" transform="translate(-77.85 -84.46)"/><path class="cls-2" d="M375.91,245.35H369a3.55,3.55,0,0,1-.73-.08,3,3,0,0,1-.62-.25,1.32,1.32,0,0,1-.42-.39.83.83,0,0,1-.17-.49v-5.45a.83.83,0,0,1,.17-.49,1.19,1.19,0,0,1,.42-.38,2.17,2.17,0,0,1,.62-.25,2.86,2.86,0,0,1,.73-.09h6.9a2.94,2.94,0,0,1,.74.09,2.23,2.23,0,0,1,.61.25,1.32,1.32,0,0,1,.43.38.8.8,0,0,1,.16.49v1.11h-2.06v-1h-6.65V244h6.65v-1h2.06v1.1a.8.8,0,0,1-.16.49,1.48,1.48,0,0,1-.43.39,2.67,2.67,0,0,1-.61.25A3.57,3.57,0,0,1,375.91,245.35Zm-6.9-7.63a2.41,2.41,0,0,0-.67.09,1.81,1.81,0,0,0-.55.22,1,1,0,0,0-.35.31.59.59,0,0,0-.12.35v5.45a.59.59,0,0,0,.12.35,1.07,1.07,0,0,0,.35.31,1.86,1.86,0,0,0,.55.23,3,3,0,0,0,.67.08h6.9a3,3,0,0,0,.68-.08,1.91,1.91,0,0,0,.54-.23,1.11,1.11,0,0,0,.36-.31.59.59,0,0,0,.12-.35v-.86H376v1h-7.15v-5.69H376v1h1.57v-.86a.57.57,0,0,0-.12-.35,1.1,1.1,0,0,0-.36-.31,1.91,1.91,0,0,0-.54-.22,2.48,2.48,0,0,0-.68-.09Z" transform="translate(-77.85 -84.46)"/><path class="cls-2" d="M383,237.6v7.63h-1.82V237.6Z" transform="translate(-77.85 -84.46)"/><path class="cls-2" d="M383.07,245.35H381v-7.87h2.06Zm-1.82-.24h1.58v-7.39h-1.58Z" transform="translate(-77.85 -84.46)"/><path class="cls-2" d="M392.33,237.6l4.9,7.63h-1.81l-1.13-1.76h-5.74l-1.12,1.76h-1.82l4.9-7.63Zm-3.08,4.78h4.34L391.43,239Z" transform="translate(-77.85 -84.46)"/><path class="cls-2" d="M397.46,245.35h-2.11l0,0-1.09-1.7h-5.6l-1.13,1.75h-2.11l.13-.19,4.94-7.68h1.95l0,.05Zm-2-.24H397l-4.75-7.39h-1.68l-4.74,7.39h1.52l1.12-1.76h5.88l0,.06Zm-1.66-2.6H389l2.4-3.71.11.15Zm-4.35-.25h3.89l-1.94-3Z" transform="translate(-77.85 -84.46)"/><path class="cls-2" d="M397.36,237.6h10.17v1.09h-4.18v6.54h-1.81v-6.54h-4.18Z" transform="translate(-77.85 -84.46)"/><path class="cls-2" d="M403.48,245.35h-2.06v-6.54h-4.18v-1.33h10.41v1.33h-4.17Zm-1.82-.24h1.57v-6.54h4.18v-.85h-9.93v.85h4.18Z" transform="translate(-77.85 -84.46)"/><path class="cls-2" d="M410.2,237.6h9.27v1.09H412v2.18h6.36V242H412v2.18h7.45v1.09H410.2Z" transform="translate(-77.85 -84.46)"/><path class="cls-2" d="M419.59,245.35h-9.51v-7.87h9.51v1.33h-7.44v1.94h6.35v1.33h-6.35V244h7.44Zm-9.26-.24h9v-.85H411.9v-2.42h6.36V241H411.9v-2.42h7.45v-.85h-9Z" transform="translate(-77.85 -84.46)"/><path class="cls-2" d="M424.5,242a3.13,3.13,0,0,1-.7-.08,2.27,2.27,0,0,1-.59-.24,1.45,1.45,0,0,1-.39-.34.78.78,0,0,1-.14-.43v-2.18a.73.73,0,0,1,.14-.42,1.32,1.32,0,0,1,.39-.35,2.27,2.27,0,0,1,.59-.23,2.63,2.63,0,0,1,.7-.09h6.17a2.76,2.76,0,0,1,.71.09,2.34,2.34,0,0,1,.58.23,1.32,1.32,0,0,1,.39.35.73.73,0,0,1,.14.42v1h-1.82v-1H424.5v2.18h6.17a2.76,2.76,0,0,1,.71.09,2.34,2.34,0,0,1,.58.23,1.48,1.48,0,0,1,.39.35.73.73,0,0,1,.14.42v2.18a.73.73,0,0,1-.14.42,1.32,1.32,0,0,1-.39.35,2.35,2.35,0,0,1-.58.24,3.29,3.29,0,0,1-.71.08h-6.35a3.19,3.19,0,0,1-.7-.08,2.2,2.2,0,0,1-.58-.24,1.11,1.11,0,0,1-.39-.35.68.68,0,0,1-.15-.42v-1h1.82v1h6.35V242Z" transform="translate(-77.85 -84.46)"/><path class="cls-2" d="M430.67,245.35h-6.35a3.47,3.47,0,0,1-.73-.08A2.58,2.58,0,0,1,423,245a1.32,1.32,0,0,1-.42-.39.83.83,0,0,1-.17-.49V243h2.07v1h6.1v-1.94H424.5a2.87,2.87,0,0,1-.73-.08,2.68,2.68,0,0,1-.62-.25,1.6,1.6,0,0,1-.43-.38.93.93,0,0,1-.16-.5v-2.18a.89.89,0,0,1,.16-.49,1.32,1.32,0,0,1,.43-.38,2.17,2.17,0,0,1,.62-.25,2.86,2.86,0,0,1,.73-.09h6.17a2.89,2.89,0,0,1,.74.09,2,2,0,0,1,.61.25,1.23,1.23,0,0,1,.43.38.82.82,0,0,1,.16.49v1.11h-2.06v-1h-5.93v1.94h6.05a3,3,0,0,1,.74.09,2,2,0,0,1,.61.25,1.23,1.23,0,0,1,.43.38.82.82,0,0,1,.16.49v2.18a.82.82,0,0,1-.16.49,1.36,1.36,0,0,1-.43.39,2.67,2.67,0,0,1-.61.25A3.57,3.57,0,0,1,430.67,245.35Zm-8-2.07v.86a.59.59,0,0,0,.12.35,1.07,1.07,0,0,0,.35.31,1.86,1.86,0,0,0,.55.23,2.93,2.93,0,0,0,.67.08h6.35a3,3,0,0,0,.68-.08,1.91,1.91,0,0,0,.54-.23,1.11,1.11,0,0,0,.36-.31.59.59,0,0,0,.12-.35V242a.62.62,0,0,0-.12-.35,1.18,1.18,0,0,0-.35-.31,1.81,1.81,0,0,0-.55-.22,2.54,2.54,0,0,0-.68-.09h-6.29v-2.42h6.42v1h1.57v-.86a.59.59,0,0,0-.12-.35,1.06,1.06,0,0,0-.35-.31,2.11,2.11,0,0,0-.55-.22,2.54,2.54,0,0,0-.68-.09H424.5a2.41,2.41,0,0,0-.67.09,1.62,1.62,0,0,0-.55.22,1,1,0,0,0-.35.31.53.53,0,0,0-.12.35v2.18a.59.59,0,0,0,.12.35,1.09,1.09,0,0,0,.35.32,2.52,2.52,0,0,0,.55.22,2.86,2.86,0,0,0,.67.08h6.3v2.42h-6.6v-1Z" transform="translate(-77.85 -84.46)"/><polygon class="cls-3" points="225.56 87.28 225.56 64.78 221.39 62.83 221.39 87.28 217.82 87.28 217.82 61.63 213.66 59.76 213.66 87.28 210.09 87.28 210.09 58.62 205.92 56.83 205.92 87.28 190.62 87.28 190.62 0 184.83 3.35 184.83 87.28 181.27 87.28 181.27 5.42 175.48 8.77 175.48 87.28 143.85 87.28 143.85 33.96 138.06 37.31 138.06 87.28 134.49 87.28 134.49 39.37 128.7 42.73 128.7 87.28 125.13 87.28 125.13 44.79 119.34 48.14 119.34 87.28 66.06 87.28 66.06 88.51 278.84 88.51 278.84 87.28 225.56 87.28"/><polygon class="cls-3" points="153.2 21.67 147.41 25.02 147.41 34.98 153.2 36.67 153.2 21.67"/><polygon class="cls-3" points="162.55 16.25 156.76 19.61 156.76 37.71 162.55 39.38 162.55 16.25"/><polygon class="cls-3" points="171.91 10.84 166.13 14.19 166.13 40.42 171.91 42.1 171.91 10.84"/><path class="cls-4" d="M106,171v-.81h-5.64v5.67H106V175h-4.53v-1.62h3.87v-.81h-3.87V171Z" transform="translate(-77.85 -84.46)"/><path class="cls-4" d="M106,171v-.81h-5.64v5.67H106V175h-4.53v-1.62h3.87v-.81h-3.87V171Zm-.78,1.77v.5H101.3v1.93h4.53v.5h-5.39v-5.36h5.39v.5H101.3v1.93Z" transform="translate(-77.85 -84.46)"/><path class="cls-4" d="M113.85,171.72V171a.72.72,0,0,0-.08-.32,1,1,0,0,0-.24-.26,1.27,1.27,0,0,0-.35-.17,1.54,1.54,0,0,0-.43-.06H109a1.54,1.54,0,0,0-.43.06,1.27,1.27,0,0,0-.35.17,1,1,0,0,0-.24.26.61.61,0,0,0-.08.32v1.62a.58.58,0,0,0,.08.31.85.85,0,0,0,.24.26,1.27,1.27,0,0,0,.35.17,1.25,1.25,0,0,0,.43.07h3.76V175h-3.87v-.73h-1.1V175a.68.68,0,0,0,.08.31,1,1,0,0,0,.24.26,1.27,1.27,0,0,0,.35.17,1.55,1.55,0,0,0,.43.07h3.87a1.55,1.55,0,0,0,.43-.07,1.27,1.27,0,0,0,.35-.17,1,1,0,0,0,.24-.26.68.68,0,0,0,.08-.31v-1.62a.72.72,0,0,0-.08-.32,1,1,0,0,0-.24-.26,1.27,1.27,0,0,0-.35-.17,1.54,1.54,0,0,0-.43-.06H109V171h3.76v.73Z" transform="translate(-77.85 -84.46)"/><path class="cls-4" d="M113.85,171.72V171a.72.72,0,0,0-.08-.32,1,1,0,0,0-.24-.26,1.27,1.27,0,0,0-.35-.17,1.54,1.54,0,0,0-.43-.06H109a1.54,1.54,0,0,0-.43.06,1.27,1.27,0,0,0-.35.17,1,1,0,0,0-.24.26.61.61,0,0,0-.08.32v1.62a.58.58,0,0,0,.08.31.85.85,0,0,0,.24.26,1.27,1.27,0,0,0,.35.17,1.25,1.25,0,0,0,.43.07h3.76V175h-3.87v-.73h-1.1V175a.68.68,0,0,0,.08.31,1,1,0,0,0,.24.26,1.27,1.27,0,0,0,.35.17,1.55,1.55,0,0,0,.43.07h3.87a1.55,1.55,0,0,0,.43-.07,1.27,1.27,0,0,0,.35-.17,1,1,0,0,0,.24-.26.68.68,0,0,0,.08-.31v-1.62a.72.72,0,0,0-.08-.32,1,1,0,0,0-.24-.26,1.27,1.27,0,0,0-.35-.17,1.54,1.54,0,0,0-.43-.06H109V171h3.76v.73Zm-5-.89v1.93h3.88a1.34,1.34,0,0,1,.4.07,1.19,1.19,0,0,1,.32.15.83.83,0,0,1,.2.22.43.43,0,0,1,.06.22V175a.43.43,0,0,1-.06.22.7.7,0,0,1-.2.22,1.2,1.2,0,0,1-.32.16,1.34,1.34,0,0,1-.4.06h-3.87a1.34,1.34,0,0,1-.4-.06,1.2,1.2,0,0,1-.32-.16.83.83,0,0,1-.2-.22.43.43,0,0,1-.06-.22v-.57h.86v.73h4.11v-1.93H109a1.34,1.34,0,0,1-.4-.06,1.07,1.07,0,0,1-.32-.16.66.66,0,0,1-.2-.21.49.49,0,0,1-.06-.22V171a.49.49,0,0,1,.06-.23.66.66,0,0,1,.2-.21,1.59,1.59,0,0,1,.32-.16,1.34,1.34,0,0,1,.4-.06h3.76a1.09,1.09,0,0,1,.4.07,1.19,1.19,0,0,1,.32.15.7.7,0,0,1,.2.22.43.43,0,0,1,.06.22v.57h-.86v-.73Z" transform="translate(-77.85 -84.46)"/><path class="cls-4" d="M115.46,170.18V171H118v4.86h1.1V171h2.55v-.81Z" transform="translate(-77.85 -84.46)"/><path class="cls-4" d="M115.46,170.18V171H118v4.86h1.1V171h2.55v-.81Zm6.06.65H119v4.86h-.86v-4.86h-2.54v-.5h5.94Z" transform="translate(-77.85 -84.46)"/><path class="cls-4" d="M129.7,171.34a1.88,1.88,0,0,0-.54-.62,2.44,2.44,0,0,0-.86-.4,3.86,3.86,0,0,0-1.12-.14h-3.93v5.67h3.93a4.23,4.23,0,0,0,1.12-.14,2.85,2.85,0,0,0,.86-.4,2,2,0,0,0,.54-.63,1.74,1.74,0,0,0,.19-.82v-1.7A1.74,1.74,0,0,0,129.7,171.34Zm-5.34-.35h2.82a2.79,2.79,0,0,1,.68.07,1.45,1.45,0,0,1,.5.24,1,1,0,0,1,.32.37,1.1,1.1,0,0,1,.11.49v1.7a1,1,0,0,1-.42.87,2,2,0,0,1-1.19.31h-2.82Z" transform="translate(-77.85 -84.46)"/><path class="cls-4" d="M128.78,171.58a1,1,0,0,0-.36-.42,1.68,1.68,0,0,0-.54-.25,3,3,0,0,0-.7-.08h-3v4.36h3a2.12,2.12,0,0,0,1.25-.32,1.17,1.17,0,0,0,.48-1v-1.7A1.27,1.27,0,0,0,128.78,171.58Zm0,2.28a1,1,0,0,1-.42.87,2,2,0,0,1-1.19.31h-2.82v-4h2.82a2.79,2.79,0,0,1,.68.07,1.45,1.45,0,0,1,.5.24,1,1,0,0,1,.32.37,1.1,1.1,0,0,1,.11.49Zm0-2.28a1,1,0,0,0-.36-.42,1.68,1.68,0,0,0-.54-.25,3,3,0,0,0-.7-.08h-3v4.36h3a2.12,2.12,0,0,0,1.25-.32,1.17,1.17,0,0,0,.48-1v-1.7A1.27,1.27,0,0,0,128.78,171.58Zm0,2.28a1,1,0,0,1-.42.87,2,2,0,0,1-1.19.31h-2.82v-4h2.82a2.79,2.79,0,0,1,.68.07,1.45,1.45,0,0,1,.5.24,1,1,0,0,1,.32.37,1.1,1.1,0,0,1,.11.49Zm.91-2.52a1.88,1.88,0,0,0-.54-.62,2.44,2.44,0,0,0-.86-.4,3.86,3.86,0,0,0-1.12-.14h-3.93v5.67h3.93a4.23,4.23,0,0,0,1.12-.14,2.85,2.85,0,0,0,.86-.4,2,2,0,0,0,.54-.63,1.74,1.74,0,0,0,.19-.82v-1.7A1.74,1.74,0,0,0,129.7,171.34Zm.07,2.52a1.6,1.6,0,0,1-.17.73,1.74,1.74,0,0,1-.5.58,2.82,2.82,0,0,1-.82.38,4.19,4.19,0,0,1-1.1.14h-3.81v-5.36h3.81a4.08,4.08,0,0,1,1.1.14,2.82,2.82,0,0,1,.82.38,1.84,1.84,0,0,1,.5.58,1.6,1.6,0,0,1,.17.73Zm-1.35-2.7a1.68,1.68,0,0,0-.54-.25,3,3,0,0,0-.7-.08h-3v4.36h3a2.12,2.12,0,0,0,1.25-.32,1.17,1.17,0,0,0,.48-1v-1.7a1.27,1.27,0,0,0-.13-.58A1,1,0,0,0,128.42,171.16Zm.37,2.7a1,1,0,0,1-.42.87,2,2,0,0,1-1.19.31h-2.82v-4h2.82a2.79,2.79,0,0,1,.68.07,1.45,1.45,0,0,1,.5.24,1,1,0,0,1,.32.37,1.1,1.1,0,0,1,.11.49Zm0-2.28a1,1,0,0,0-.36-.42,1.68,1.68,0,0,0-.54-.25,3,3,0,0,0-.7-.08h-3v4.36h3a2.12,2.12,0,0,0,1.25-.32,1.17,1.17,0,0,0,.48-1v-1.7A1.27,1.27,0,0,0,128.78,171.58Zm0,2.28a1,1,0,0,1-.42.87,2,2,0,0,1-1.19.31h-2.82v-4h2.82a2.79,2.79,0,0,1,.68.07,1.45,1.45,0,0,1,.5.24,1,1,0,0,1,.32.37,1.1,1.1,0,0,1,.11.49Zm0-2.28a1,1,0,0,0-.36-.42,1.68,1.68,0,0,0-.54-.25,3,3,0,0,0-.7-.08h-3v4.36h3a2.12,2.12,0,0,0,1.25-.32,1.17,1.17,0,0,0,.48-1v-1.7A1.27,1.27,0,0,0,128.78,171.58Zm0,2.28a1,1,0,0,1-.42.87,2,2,0,0,1-1.19.31h-2.82v-4h2.82a2.79,2.79,0,0,1,.68.07,1.45,1.45,0,0,1,.5.24,1,1,0,0,1,.32.37,1.1,1.1,0,0,1,.11.49Z" transform="translate(-77.85 -84.46)"/><path class="cls-4" d="M370.81,170.18V171h1.47v4.86h1.23v-5.67Z" transform="translate(-77.85 -84.46)"/><path class="cls-4" d="M370.81,170.18V171h1.47v4.86h1.23v-5.67Zm2.58,5.51h-1v-4.86h-1.47v-.5h2.46Z" transform="translate(-77.85 -84.46)"/><path class="cls-4" d="M382.55,175a.56.56,0,0,1-.09.31,1,1,0,0,1-.27.26,1.4,1.4,0,0,1-.39.18,1.86,1.86,0,0,1-.48.06h-3.93a1.86,1.86,0,0,1-.48-.06,1.4,1.4,0,0,1-.39-.18.81.81,0,0,1-.26-.26.5.5,0,0,1-.1-.31v-.73h1.23V175h3.93v-1.62h-3.93a1.86,1.86,0,0,1-.48-.06,1.4,1.4,0,0,1-.39-.18.89.89,0,0,1-.26-.25.55.55,0,0,1-.1-.32V171a.52.52,0,0,1,.1-.31.81.81,0,0,1,.26-.26,1.39,1.39,0,0,1,.39-.17,1.51,1.51,0,0,1,.48-.07h3.93a1.51,1.51,0,0,1,.48.07,1.39,1.39,0,0,1,.39.17,1,1,0,0,1,.27.26.59.59,0,0,1,.09.31Zm-1.23-2.43V171h-3.93v1.62Z" transform="translate(-77.85 -84.46)"/><path class="cls-4" d="M391.47,175a.5.5,0,0,1-.1.31.81.81,0,0,1-.26.26,1.4,1.4,0,0,1-.39.18,1.86,1.86,0,0,1-.48.06h-3.93a1.86,1.86,0,0,1-.48-.06,1.4,1.4,0,0,1-.39-.18.84.84,0,0,1-.27-.26.56.56,0,0,1-.09-.31v-.73h1.23V175h3.93v-1.62h-3.93a1.86,1.86,0,0,1-.48-.06,1.4,1.4,0,0,1-.39-.18.93.93,0,0,1-.27-.25.62.62,0,0,1-.09-.32V171a.59.59,0,0,1,.09-.31.84.84,0,0,1,.27-.26,1.39,1.39,0,0,1,.39-.17,1.51,1.51,0,0,1,.48-.07h3.93a1.51,1.51,0,0,1,.48.07,1.39,1.39,0,0,1,.39.17.81.81,0,0,1,.26.26.52.52,0,0,1,.1.31Zm-1.23-2.43V171h-3.93v1.62Z" transform="translate(-77.85 -84.46)"/><path class="cls-4" d="M399.15,174.31V175h-4v-.82l4.26-1.32a2.21,2.21,0,0,0,.4-.16.93.93,0,0,0,.27-.19.57.57,0,0,0,.15-.23.94.94,0,0,0,.05-.3v-1a.55.55,0,0,0-.1-.32,1.12,1.12,0,0,0-.27-.26,1.39,1.39,0,0,0-.39-.17,1.78,1.78,0,0,0-.47-.06h-3.9a1.86,1.86,0,0,0-.48.06,1.39,1.39,0,0,0-.39.17.92.92,0,0,0-.26.26.55.55,0,0,0-.1.32v.73h1.23V171H399v1.17l-4.27,1.32a2.42,2.42,0,0,0-.39.16.93.93,0,0,0-.27.19.76.76,0,0,0-.15.23.88.88,0,0,0-.05.29v1.5h6.51v-1.54Z" transform="translate(-77.85 -84.46)"/><path class="cls-4" d="M399.15,174.31V175h-4v-.82l4.26-1.32a2.21,2.21,0,0,0,.4-.16.93.93,0,0,0,.27-.19.57.57,0,0,0,.15-.23.94.94,0,0,0,.05-.3v-1a.55.55,0,0,0-.1-.32,1.12,1.12,0,0,0-.27-.26,1.39,1.39,0,0,0-.39-.17,1.78,1.78,0,0,0-.47-.06h-3.9a1.86,1.86,0,0,0-.48.06,1.39,1.39,0,0,0-.39.17.92.92,0,0,0-.26.26.55.55,0,0,0-.1.32v.73h1.23V171H399v1.17l-4.27,1.32a2.42,2.42,0,0,0-.39.16.93.93,0,0,0-.27.19.76.76,0,0,0-.15.23.88.88,0,0,0-.05.29v1.5h6.51v-1.54Zm1.11,1.38H394v-1.33a.56.56,0,0,1,0-.23.57.57,0,0,1,.12-.18,1.24,1.24,0,0,1,.24-.17l.37-.15,4.27-1.31.09,0v-1.46H395v.73h-1V171a.36.36,0,0,1,.07-.22,1,1,0,0,1,.23-.22,1.22,1.22,0,0,1,.36-.15,1.33,1.33,0,0,1,.45-.07H399a1.33,1.33,0,0,1,.45.07,1.19,1.19,0,0,1,.36.16.93.93,0,0,1,.23.21.47.47,0,0,1,.07.22v1a.73.73,0,0,1,0,.23.47.47,0,0,1-.12.18.77.77,0,0,1-.24.16,2,2,0,0,1-.38.16l-4.26,1.31-.09,0v1.1h4.3v-.73h1Z" transform="translate(-77.85 -84.46)"/><path class="cls-3" d="M142.47,174.31c0-.7.35-1.34,1.06-1.34h.38v-1.22h-.38c-.71,0-1.06-.7-1.06-1.4v-.2H142v4.45h.51Z" transform="translate(-77.85 -84.46)"/><path class="cls-3" d="M358.14,174.57h.49v-4.42h-.49v.2c0,.7-.35,1.4-1.06,1.4h-.38V173h.38c.71,0,1.06.61,1.06,1.31Z" transform="translate(-77.85 -84.46)"/></svg>